<?xml version="1.0" encoding="UTF-8"?>
<svg version="1.1" xmlns="http://www.w3.org/2000/svg" width="726" height="611">
<path d="M0 0 C239.58 0 479.16 0 726 0 C726 201.63 726 403.26 726 611 C486.42 611 246.84 611 0 611 C0 409.37 0 207.74 0 0 Z " fill="#FEFEFE" transform="translate(0,0)"/>
<path d="M0 0 C0.66435059 0.17128418 1.32870117 0.34256836 2.01318359 0.51904297 C19.84376427 5.12605078 36.67292401 13.45286885 51 25 C51.57218262 25.45552246 52.14436523 25.91104492 52.73388672 26.38037109 C59.43971873 31.7558136 65.57921466 37.30373575 71 44 C71.75539063 44.86882812 72.51078125 45.73765625 73.2890625 46.6328125 C83.942594 59.00146362 92.09122283 72.2322875 99 87 C99.59748047 88.26263672 99.59748047 88.26263672 100.20703125 89.55078125 C105.17638383 100.3804062 108.88392925 111.42808609 111.6875 123 C111.98205078 124.16789063 112.27660156 125.33578125 112.58007812 126.5390625 C117.09826698 144.85549552 118.18683608 162.75740351 118.18530273 181.53930664 C118.18751773 184.58688764 118.20581109 187.63412204 118.22460938 190.68164062 C118.22753884 192.62239461 118.22952662 194.56315029 118.23046875 196.50390625 C118.24124702 197.86788292 118.24124702 197.86788292 118.25224304 199.25941467 C118.24916641 200.10136887 118.24608978 200.94332306 118.24291992 201.81079102 C118.24434494 202.54959 118.24576996 203.28838898 118.24723816 204.04957581 C118 206 118 206 116 209 C115.6117515 210.93094602 115.30610408 212.87905924 115.05078125 214.83203125 C111.89643057 237.01077154 106.26145705 258.77267813 99 279.9375 C98.6798291 280.87311768 98.3596582 281.80873535 98.02978516 282.77270508 C96.02108471 288.49309051 93.72449592 293.99980009 91.1484375 299.48828125 C90.00734424 301.98393759 88.98709163 304.50251195 88 307.0625 C86.29811791 311.40714208 84.29713672 315.5357716 82.1484375 319.67578125 C80.9748354 321.95761744 80.9748354 321.95761744 80.140625 324.26171875 C78.51133914 328.17312076 76.44461904 331.80660967 74.375 335.5 C73.92697021 336.30099121 73.47894043 337.10198242 73.01733398 337.92724609 C60.51384538 360.15023474 46.0741291 381.74136331 28.52734375 400.3203125 C26.22028538 402.76643621 24.01502126 405.27273068 21.8125 407.8125 C7.87312351 423.26486932 -8.2098838 436.24773197 -26 447 C-27.2192271 447.75965147 -28.43794375 448.52012259 -29.65625 449.28125 C-36.57362766 453.56758477 -43.26529128 457.37170092 -51 460 C-52.30361335 460.47463486 -53.60697613 460.94995819 -54.91015625 461.42578125 C-70.93702203 467.15222233 -86.90958264 470.93220458 -104 470 C-102.33880053 466.67760107 -98.59104931 465.9307681 -95.3125 464.5 C-77.48022269 456.38166542 -61.42723428 443.08864198 -49 428 C-48.35683838 427.22317871 -48.35683838 427.22317871 -47.70068359 426.43066406 C-40.78178991 418.02196248 -34.68057113 409.28367625 -29 400 C-28.39542969 399.03835938 -27.79085937 398.07671875 -27.16796875 397.0859375 C-21.90127441 388.45474091 -17.96849227 379.27699492 -14 370 C-14.70125 370.33773438 -15.4025 370.67546875 -16.125 371.0234375 C-17.07375 371.46945312 -18.0225 371.91546875 -19 372.375 C-19.928125 372.81585938 -20.85625 373.25671875 -21.8125 373.7109375 C-32.18266939 377.904756 -47.25206167 379.70480204 -57.86328125 375.22265625 C-68.77260499 368.98020957 -78.55827603 360.3567739 -82.546875 348.05859375 C-83.42248643 344.08060043 -83.75873094 340.0599759 -84 336 C-83.34 336 -82.68 336 -82 336 C-81.1028125 337.2375 -81.1028125 337.2375 -80.1875 338.5 C-74.60608362 345.47262996 -63.85083452 351.57779102 -55 353 C-42.23300562 354.11446691 -32.94828076 352.20679893 -23.078125 343.94140625 C6.58139608 316.23316945 10.54754078 262.72683383 12.2734375 224.61328125 C12.72805594 207.34422907 10.02398112 190.52748931 5 174 C4.44054687 174.01522705 3.88109375 174.0304541 3.3046875 174.04614258 C-4.19747092 174.15695621 -11.54575055 173.4855587 -19 172.6875 C-20.28366455 172.55142334 -21.5673291 172.41534668 -22.88989258 172.27514648 C-32.67300915 171.20701312 -42.34302432 169.88945838 -52 168 C-53.04196533 167.80567383 -53.04196533 167.80567383 -54.10498047 167.60742188 C-85.6897266 161.64341508 -114.07471264 149.53275862 -138 128 C-138.33 139.55 -138.66 151.1 -139 163 C-145.75532602 157.37056165 -145.75532602 157.37056165 -147.6328125 154.51171875 C-148.04660156 153.88716797 -148.46039063 153.26261719 -148.88671875 152.61914062 C-149.29535156 151.98169922 -149.70398438 151.34425781 -150.125 150.6875 C-150.54136719 150.06166016 -150.95773437 149.43582031 -151.38671875 148.79101562 C-157.98757471 138.70350064 -161.32476063 130.2972345 -160 118 C-158.71837126 114.68115542 -156.98715619 111.93256079 -155 109 C-153.4301744 106.55695891 -152.87508188 105.61506296 -153.4609375 102.73046875 C-153.76257813 101.89128906 -154.06421875 101.05210937 -154.375 100.1875 C-158.70293236 85.63167368 -155.44076624 73.12447677 -148.5 60.125 C-139.01298428 43.72886347 -124.48414293 30.60083898 -109 20 C-108.42878418 19.59894043 -107.85756836 19.19788086 -107.26904297 18.78466797 C-93.35367105 9.01540314 -79.51908471 2.94732427 -63 -1 C-62.33049316 -1.16661133 -61.66098633 -1.33322266 -60.97119141 -1.50488281 C-41.01731782 -6.32736014 -19.68412943 -5.50017972 0 0 Z " fill="#DB494F" transform="translate(580,60)"/>
<path d="M0 0 C1.365638 0.32136573 2.7315346 0.64163405 4.09765625 0.9609375 C20.99393708 5.16271966 35.28190999 14.56871592 49 25 C50.30130859 25.96486328 50.30130859 25.96486328 51.62890625 26.94921875 C67.50388785 39.10389969 82.17622548 54.65909638 86 75 C86.09361899 77.08164583 86.12993778 79.16625589 86.125 81.25 C86.12757813 82.40628906 86.13015625 83.56257813 86.1328125 84.75390625 C86.02235023 87.45373401 85.66658863 89.60050128 85 92.1875 C85 97.49337565 87.46294507 99.41669487 90.8515625 103.3046875 C96.3467439 110.19864234 98.91889368 118.15005513 98.47265625 126.9375 C96.0239559 142.80345932 85.11424176 155.99601857 74 167 C73.67 167 73.34 167 73 167 C72.31496965 150.99105928 71.84542702 135.02406534 72 119 C70.90558594 120.09441406 70.90558594 120.09441406 69.7890625 121.2109375 C68.86867188 122.13132812 67.94828125 123.05171875 67 124 C66.26523437 124.75539063 65.53046875 125.51078125 64.7734375 126.2890625 C53.25077577 137.51145943 38.12336628 145.704312 23 151 C21.81035645 151.41693115 21.81035645 151.41693115 20.59667969 151.84228516 C7.89336127 156.16066035 -4.88683804 158.89394527 -18.125 160.875 C-18.8132486 160.97845734 -19.50149719 161.08191467 -20.21060181 161.18850708 C-34.39654944 163.28574083 -48.55285053 164.10025073 -62.875 164.5625 C-64.14730469 164.60568359 -65.41960937 164.64886719 -66.73046875 164.69335938 C-69.82024246 164.79790059 -72.91007378 164.9000866 -76 165 C-81.23917601 174.37740899 -81.2137569 182.37303149 -78.375 192.75 C-77.6099922 195.1752375 -76.81618493 197.59150336 -76 200 C-75.76442383 200.70801758 -75.52884766 201.41603516 -75.28613281 202.14550781 C-74.53571826 204.39282773 -73.77171728 206.6349103 -73 208.875 C-72.7632959 209.56432617 -72.5265918 210.25365234 -72.28271484 210.96386719 C-70.77421079 215.21222368 -68.96279317 219.17526772 -66.90136719 223.18261719 C-65.77197422 225.4597573 -64.92944956 227.77798203 -64.125 230.1875 C-62.7230615 234.16597412 -61.13227904 237.94500747 -59.3125 241.75 C-52.45595024 256.36802486 -46.69279723 271.51105511 -42.51757812 287.11035156 C-42.02933405 288.89290304 -41.49269405 290.66199486 -40.953125 292.4296875 C-30.26786754 328.67736859 -30.72965335 367.93903855 -48 402 C-48.43828125 402.87527344 -48.8765625 403.75054687 -49.328125 404.65234375 C-55.23109547 415.95555918 -62.79885104 426.26311465 -71 436 C-71.70898438 436.84433594 -72.41796875 437.68867188 -73.1484375 438.55859375 C-89.31570895 457.19350137 -112.97235021 469.26895431 -137.66259766 471.30151367 C-141.38483731 471.43549449 -145.08803216 471.46735545 -148.8125 471.4375 C-150.12259033 471.43137695 -151.43268066 471.42525391 -152.7824707 471.41894531 C-162.71615156 471.25907177 -171.58865198 470.11562891 -181 467 C-182.53914063 466.53207031 -182.53914063 466.53207031 -184.109375 466.0546875 C-202.12161475 460.13353687 -217.782133 445.94106913 -227.6875 429.9375 C-229 427 -229 427 -228 424 C-227.608125 424.556875 -227.21625 425.11375 -226.8125 425.6875 C-218.63354129 436.12272318 -204.44487837 442.54694179 -191.4453125 444.546875 C-170.48851129 446.98602188 -150.60966106 444.70430845 -133.1796875 431.93359375 C-116.54664777 417.71666835 -109.8215285 398.45412174 -107.72070312 377.17041016 C-105.9883052 349.81701484 -113.16133073 319.84229368 -127.17578125 296.30859375 C-129.09995237 292.81871593 -130.50337119 289.30632204 -131.9440918 285.59887695 C-133.64732024 281.40676903 -135.69474963 277.40322651 -137.75 273.375 C-138.18900635 272.50383545 -138.6280127 271.6326709 -139.08032227 270.73510742 C-141.05201016 266.82428899 -143.03844317 262.92142212 -145.04296875 259.02734375 C-149.24123069 250.82501497 -153.08402236 242.48914161 -156.8125 234.0625 C-157.28099365 233.00780518 -157.7494873 231.95311035 -158.23217773 230.86645508 C-162.32980131 221.51284554 -165.35429184 212.08543627 -168.0625 202.25 C-168.31837891 201.35023438 -168.57425781 200.45046875 -168.83789062 199.5234375 C-172.31550211 186.90033359 -173.350467 174.68966374 -173.31567383 161.6628418 C-173.31251758 159.20120724 -173.33605316 156.74078372 -173.36132812 154.27929688 C-173.41969223 139.95373269 -171.02262023 126.75225028 -167.1875 112.9375 C-166.93105713 112.00631348 -166.67461426 111.07512695 -166.41040039 110.11572266 C-164.15221148 102.13600846 -161.27918791 94.61240051 -158 87 C-157.61328125 86.00355469 -157.2265625 85.00710937 -156.828125 83.98046875 C-149.25686979 64.61153847 -137.45280737 47.80413101 -123 33 C-122.45690186 32.42918701 -121.91380371 31.85837402 -121.35424805 31.27026367 C-117.24007843 27.02103146 -112.9066109 23.44907578 -108.0625 20.0625 C-107.3317627 19.54888916 -106.60102539 19.03527832 -105.84814453 18.50610352 C-98.60443029 13.53411886 -90.99313579 9.61345463 -83 6 C-81.91847656 5.48824219 -80.83695313 4.97648437 -79.72265625 4.44921875 C-74.92254266 2.58054914 -70.08633006 1.47406883 -65.0625 0.375 C-64.11181641 0.1584375 -63.16113281 -0.058125 -62.18164062 -0.28125 C-42.4101113 -4.6961194 -19.65116083 -5.29483633 0 0 Z " fill="#22B7B2" transform="translate(247,60)"/>
<path d="M0 0 C8 6 8 6 11.0625 8.8125 C16.76070111 13.73893573 23.43286059 17.3701286 30 21 C30.62068359 21.34321289 31.24136719 21.68642578 31.88085938 22.04003906 C50.07285113 31.84531175 71.58066327 38.16269853 92 41 C94.1992725 41.32776455 96.39848536 41.6559294 98.59765625 41.984375 C113.69549731 44.18992555 128.78254497 45.89294871 144 47 C152.212096 63.95400465 153.0547148 84.50890131 152 103 C151.95456055 103.8264502 151.90912109 104.65290039 151.86230469 105.50439453 C151.47741125 111.70117884 150.78853373 117.84276543 150 124 C149.91752014 124.6509967 149.83504028 125.30199341 149.75006104 125.97271729 C149.17860554 130.45776148 148.57640972 134.93755098 147.94369507 139.41436768 C147.73197769 140.92446827 147.52573884 142.43534753 147.32510376 143.94696045 C147.03955638 146.075768 146.73013404 148.19975679 146.4140625 150.32421875 C146.2382666 151.56260498 146.0624707 152.80099121 145.88134766 154.0769043 C145 157 145 157 143.02734375 158.2956543 C142.35832031 158.52808838 141.68929687 158.76052246 141 159 C139.10803965 160.93734793 139.10803965 160.93734793 137.375 163.125 C136.29290197 164.45281461 135.17594761 165.75453824 134 167 C133.34 167 132.68 167 132 167 C132 167.66 132 168.32 132 169 C130.13671875 170.7265625 130.13671875 170.7265625 127.6875 172.625 C126.88699219 173.25664062 126.08648438 173.88828125 125.26171875 174.5390625 C123 176 123 176 120 176 C120 176.66 120 177.32 120 178 C117.54425197 179.25529552 115.08558452 180.50424626 112.625 181.75 C111.60599609 182.27207031 111.60599609 182.27207031 110.56640625 182.8046875 C101.35558371 187.45314 92.13154591 190.69234445 82.125 193.1875 C81.10664062 193.44724609 80.08828125 193.70699219 79.0390625 193.97460938 C76.36099949 194.65645831 73.68120933 195.33064961 71 196 C70.29939453 196.18626953 69.59878906 196.37253906 68.87695312 196.56445312 C61.35150954 198.31073192 52.62330119 197.82378873 45.58984375 194.6171875 C40.89773013 191.6872704 36.79980654 188.04673924 32.6875 184.36328125 C30.25363171 182.02064684 30.25363171 182.02064684 28 181 C27 179.33333333 26 177.66666667 25 176 C24.278125 175.175 23.55625 174.35 22.8125 173.5 C5.86262217 153.67377926 0.49169436 129.79839987 0.70703125 104.48046875 C0.71263843 102.52607044 0.71690322 100.57166786 0.71989441 98.61726379 C0.73125488 93.51602178 0.76064461 88.41504303 0.79400635 83.31390381 C0.82489869 78.09146687 0.83844039 72.86898668 0.85351562 67.64648438 C0.88552415 57.43087501 0.93661184 47.21545954 1 37 C0.34 36.67 -0.32 36.34 -1 36 C-0.67 24.12 -0.34 12.24 0 0 Z " fill="#FDD1AA" transform="translate(441,187)"/>
<path d="M0 0 C0.66 0 1.32 0 2 0 C2.04789169 1.10310013 2.09578339 2.20620026 2.14512634 3.34272766 C2.59830963 13.77316926 3.05423347 24.20348801 3.51279354 34.63369465 C3.74841772 39.99507724 3.98309917 45.35649753 4.21557617 50.71801758 C4.4402506 55.89876938 4.66746668 61.07940419 4.89639473 66.25996971 C4.98299975 68.22971887 5.06871161 70.19950753 5.15348625 72.16933632 C5.71827162 85.51274393 5.71827162 85.51274393 6.79154968 98.82270813 C9.28500549 124.86719264 5.43754006 146.03430769 -7 169 C-8.00723649 170.99636536 -9.00982184 172.99511915 -10 175 C-10.66 175 -11.32 175 -12 175 C-12.28810547 176.0209375 -12.28810547 176.0209375 -12.58203125 177.0625 C-14.5576271 181.15519443 -17.45663549 183.85318504 -20.6875 187 C-21.28755859 187.60328125 -21.88761719 188.2065625 -22.50585938 188.828125 C-31.13124241 197.35159696 -38.00964451 201.42358192 -50.48120117 201.44042969 C-64.62397927 201.11459335 -78.99799388 197.56213798 -92.29711914 192.92041016 C-94.52057491 192.16325829 -96.71515389 191.53606091 -98.98828125 190.95703125 C-103.00195342 189.57512062 -106.2325085 188.24757579 -109 185 C-112.29269337 178.12511704 -113.67590314 170.58314742 -115.25830078 163.17260742 C-117.48044275 153.66742809 -121.23086672 144.59449483 -124.875 135.5625 C-125.31408691 134.4686499 -125.75317383 133.3747998 -126.20556641 132.24780273 C-128.88859786 125.61137633 -131.7031587 119.08364061 -134.7734375 112.6171875 C-136.71061606 108.48371731 -138.37151465 104.2627999 -140 100 C-140.474375 98.7728125 -140.94875 97.545625 -141.4375 96.28125 C-144.63055405 87.94992493 -147.55203843 79.58669595 -150 71 C-150.19335938 70.3503125 -150.38671875 69.700625 -150.5859375 69.03125 C-152.2988802 60.62813486 -151.57705194 53.21232427 -147 46 C-145.26527896 44.26527896 -142.88029019 44.80861999 -140.515625 44.75390625 C-139.36368652 44.72256592 -138.21174805 44.69122559 -137.02490234 44.65893555 C-135.15632568 44.61119995 -135.15632568 44.61119995 -133.25 44.5625 C-121.08964685 44.17917617 -109.07569968 43.48108403 -97 42 C-96.0085498 41.88317871 -95.01709961 41.76635742 -93.99560547 41.64599609 C-70.12120905 38.73880903 -46.00019405 32.73649802 -24.9375 20.75 C-23.92743896 20.17693115 -23.92743896 20.17693115 -22.89697266 19.59228516 C-13.90981125 14.35673366 -6.64095782 8.00320558 0 0 Z " fill="#FCD2AB" transform="translate(317,179)"/>
<path d="M0 0 C1.10619186 -0.0071553 2.21238373 -0.01431061 3.35209656 -0.02168274 C5.18097412 -0.02571609 5.18097412 -0.02571609 7.04679871 -0.02983093 C8.32653061 -0.03640213 9.60626251 -0.04297333 10.92477417 -0.04974365 C14.44140196 -0.0671576 17.95801615 -0.07770648 21.47467637 -0.08594918 C23.67145095 -0.09109854 25.86822131 -0.0971743 28.0649929 -0.10346031 C34.93728279 -0.12251356 41.80956192 -0.13674437 48.68187314 -0.14507228 C56.61649002 -0.15484606 64.55082802 -0.1811684 72.48534662 -0.22157317 C78.61705158 -0.25172668 84.74867657 -0.26654041 90.88045424 -0.26985329 C94.54327013 -0.27220469 98.20578815 -0.2811761 101.86852455 -0.30631447 C105.95547179 -0.33391089 110.04179551 -0.32976646 114.12882996 -0.32279968 C115.34200897 -0.33560974 116.55518799 -0.3484198 117.80513 -0.36161804 C126.00600566 -0.31052998 126.00600566 -0.31052998 130.01022339 2.05154419 C133.20875223 5.83490941 132.9477525 9.04750783 132.97477722 13.80635071 C132.98704346 14.99202133 132.98704346 14.99202133 132.9995575 16.2016449 C133.0244202 18.82410421 133.04093076 21.44650931 133.05534363 24.06904602 C133.0606673 24.96439308 133.06599098 25.85974014 133.07147598 26.78221893 C133.09821289 31.52235051 133.11758501 36.26245571 133.13200378 41.00263977 C133.14864231 45.89659967 133.19341162 50.78988493 133.24437523 55.68358994 C133.27805034 59.44802107 133.28958155 63.21229224 133.29523087 66.97686005 C133.3019439 68.78057758 133.3171674 70.58428457 133.34112167 72.38785553 C133.3727794 74.91593155 133.37280953 77.44219061 133.36540222 79.97041321 C133.38180756 80.71246002 133.39821289 81.45450684 133.41511536 82.21903992 C133.36434569 86.46273249 132.68264092 89.91262579 129.65818214 93.04820061 C125.28205873 95.611379 119.90664343 94.96259213 114.99284363 94.90766907 C113.04332794 94.9210305 113.04332794 94.9210305 111.0544281 94.93466187 C107.49628087 94.95771196 103.93920838 94.94304382 100.38109589 94.92019248 C96.65449529 94.90125494 92.92796585 94.91243818 89.20133972 94.9190979 C82.94351665 94.92543555 76.68612339 94.90718438 70.4283905 94.87446594 C63.19758269 94.83697199 55.96758906 94.83875063 48.7367382 94.86150712 C41.77571945 94.88246893 34.81500109 94.87517506 27.85398865 94.85518837 C24.89389954 94.84720983 21.93406506 94.84918468 18.97398376 94.85921288 C14.83918105 94.87174002 10.70565858 94.8429964 6.57096863 94.81001282 C5.34380127 94.81856293 4.11663391 94.82711304 2.85227966 94.83592224 C-6.37485139 94.70867222 -6.37485139 94.70867222 -9.45491028 91.73074341 C-12.29598442 87.56775055 -12.38230131 84.59319649 -12.41096497 79.67158508 C-12.41914246 78.90064514 -12.42731995 78.1297052 -12.43574524 77.33540344 C-12.46060612 74.77787556 -12.47711812 72.22040326 -12.49153137 69.66279602 C-12.49685505 68.78951408 -12.50217873 67.91623215 -12.50766373 67.01648712 C-12.5344 62.39306516 -12.55377222 57.76967023 -12.56819153 53.14619446 C-12.58482891 48.37329496 -12.62959731 43.60108736 -12.68056297 38.82844925 C-12.71424229 35.15666422 -12.72576975 31.48504316 -12.73141861 27.81311798 C-12.73813061 26.0540565 -12.75335146 24.29500579 -12.77730942 22.53609467 C-12.80897618 20.07027089 -12.80899606 17.60630932 -12.80158997 15.14033508 C-12.8179953 14.41698975 -12.83440063 13.69364441 -12.8513031 12.94837952 C-12.78178809 7.27844578 -11.09245529 4.9832095 -7.21809387 1.14717102 C-4.66494644 -0.12940269 -2.85952573 0.01266235 0 0 Z " fill="#D3D3D3" transform="translate(296.2180938720703,436.8528289794922)"/>
<path d="M0 0 C6.31728244 5.72075886 10.14775151 12.53297242 10.82421875 21.08984375 C10.84370306 22.44648029 10.84716871 23.80342628 10.8359375 25.16015625 C10.83029785 25.86978516 10.8246582 26.57941406 10.81884766 27.31054688 C10.6096106 36.31809856 7.5991358 42.67578174 1.5234375 49.28515625 C-6.38553881 56.40644996 -14.84840212 59.72037955 -25.4765625 59.55078125 C-35.65105287 58.64991492 -42.71824232 53.70104272 -49.4765625 46.28515625 C-56.47286924 37.13366537 -56.38642077 27.43808943 -55.4765625 16.28515625 C-53.75490932 8.23615346 -47.76231334 1.06295772 -40.9453125 -3.35546875 C-27.21808842 -10.54985728 -12.18619709 -9.40419411 0 0 Z " fill="#FAFCFC" transform="translate(379.4765625,458.71484375)"/>
<path d="M0 0 C0.85428589 -0.00630432 1.70857178 -0.01260864 2.58874512 -0.019104 C3.51272095 -0.01505554 4.43669678 -0.01100708 5.38867188 -0.00683594 C6.80895691 -0.00970612 6.80895691 -0.00970612 8.25793457 -0.01263428 C10.26196559 -0.01399667 12.26600542 -0.0102965 14.27001953 -0.00195312 C17.34492741 0.00874559 20.41925101 -0.00184666 23.49414062 -0.01464844 C25.43815234 -0.01332685 27.38216368 -0.01076448 29.32617188 -0.00683594 C30.71213562 -0.01290863 30.71213562 -0.01290863 32.12609863 -0.019104 C33.40752747 -0.00964752 33.40752747 -0.00964752 34.71484375 0 C35.4682605 0.00159119 36.22167725 0.00318237 36.9979248 0.00482178 C38.85742188 0.25878906 38.85742188 0.25878906 40.85742188 2.25878906 C41.31706878 6.55332113 41.18141967 10.88001724 41.16992188 15.19628906 C41.18603516 16.40220703 41.20214844 17.608125 41.21875 18.85058594 C41.21939453 20.00494141 41.22003906 21.15929687 41.22070312 22.34863281 C41.22368408 23.40945068 41.22666504 24.47026855 41.22973633 25.56323242 C40.79767557 28.69135228 40.29144792 29.35155756 37.85742188 31.25878906 C35.96032715 31.63973999 35.96032715 31.63973999 33.80078125 31.64697266 C32.58436951 31.66115738 32.58436951 31.66115738 31.34338379 31.67562866 C30.47145386 31.66955597 29.59952393 31.66348328 28.70117188 31.65722656 C27.35315491 31.66153183 27.35315491 31.66153183 25.97790527 31.66592407 C24.07819997 31.66796521 22.17847367 31.66243184 20.27880859 31.64990234 C17.36833778 31.63384927 14.45925567 31.64974919 11.54882812 31.66894531 C9.70377297 31.66696289 7.85871868 31.66311923 6.01367188 31.65722656 C4.70577698 31.6663356 4.70577698 31.6663356 3.37145996 31.67562866 C2.5605188 31.66617218 1.74957764 31.6567157 0.9140625 31.64697266 C-0.15491272 31.64339249 -0.15491272 31.64339249 -1.2454834 31.63973999 C-3.72067803 31.14270224 -4.61526802 30.23654855 -6.14257812 28.25878906 C-6.51489258 25.56323242 -6.51489258 25.56323242 -6.50585938 22.34863281 C-6.50521484 21.19427734 -6.50457031 20.03992188 -6.50390625 18.85058594 C-6.48779297 17.64466797 -6.47167969 16.43875 -6.45507812 15.19628906 C-6.45830078 13.98650391 -6.46152344 12.77671875 -6.46484375 11.53027344 C-6.39403075 0.01350394 -6.39403075 0.01350394 0 0 Z " fill="#DC4B52" transform="translate(388.142578125,397.7412109375)"/>
<path d="M0 0 C2.13715115 1.19958867 3.80375787 2.48125622 5.6015625 4.14453125 C6.20097656 4.69109375 6.80039062 5.23765625 7.41796875 5.80078125 C11.10435621 9.83784594 12.037466 13.19855191 12.2265625 18.64453125 C11.92453368 24.20314669 11.30304226 28.83593047 7.6015625 33.14453125 C1.47926152 38.18382592 -3.81700543 40.58097652 -11.765625 40.48828125 C-17.44371172 39.74692868 -21.5571528 36.32670587 -25.2734375 32.14453125 C-29.40563546 26.31084002 -30.38896295 21.22573446 -29.3984375 14.14453125 C-27.350398 7.9407611 -23.65109504 3.52602357 -18.05859375 0.18359375 C-12.22106346 -2.09655758 -5.901548 -2.10494953 0 0 Z " fill="#26B7B3" transform="translate(365.3984375,464.85546875)"/>
<path d="M0 0 C0.763125 0.0825 1.52625 0.165 2.3125 0.25 C3 2.4375 3 2.4375 3.3125 5.25 C1.9375 7.8125 1.9375 7.8125 0.3125 10.25 C-0.38329454 12.44130534 -0.38329454 12.44130534 -0.6875 14.25 C0.9521875 14.4665625 0.9521875 14.4665625 2.625 14.6875 C6.3125 15.25 6.3125 15.25 9.3125 16.25 C9.621875 15.46625 9.93125 14.6825 10.25 13.875 C11.3125 11.25 11.3125 11.25 12.3125 9.25 C13.9625 9.25 15.6125 9.25 17.3125 9.25 C17.9375 11.625 17.9375 11.625 18.3125 14.25 C17.6525 14.91 16.9925 15.57 16.3125 16.25 C16.29042512 18.92813399 16.29042512 18.92813399 16.6875 21.875 C16.79835938 22.87789063 16.90921875 23.88078125 17.0234375 24.9140625 C17.11882813 25.68492187 17.21421875 26.45578125 17.3125 27.25 C15 27.89453125 15 27.89453125 12.3125 28.25 C9.3125 25.9375 9.3125 25.9375 7.9375 24.57421875 C3.26152838 20.76375149 -1.91351829 20.82739604 -7.68359375 20.93359375 C-13.5472835 21.55122557 -17.55041637 24.15714214 -21.875 28 C-24.6875 30.25 -24.6875 30.25 -27.5625 30.5625 C-28.26375 30.459375 -28.965 30.35625 -29.6875 30.25 C-30.0175 28.6 -30.3475 26.95 -30.6875 25.25 C-30.0275 25.25 -29.3675 25.25 -28.6875 25.25 C-29.3475 24.54875 -30.0075 23.8475 -30.6875 23.125 C-32.98983203 19.81539771 -33.05380156 18.18774177 -32.6875 14.25 C-31.3675 13.92 -30.0475 13.59 -28.6875 13.25 C-28.130625 14.075 -27.57375 14.9 -27 15.75 C-24.93822867 18.5245414 -24.93822867 18.5245414 -21.9375 18.5625 C-21.195 18.459375 -20.4525 18.35625 -19.6875 18.25 C-20.43 16.7340625 -20.43 16.7340625 -21.1875 15.1875 C-22.79205512 11.43846836 -23.08138872 8.34644264 -22.6875 4.25 C-22.0275 3.26 -21.3675 2.27 -20.6875 1.25 C-19.0375 1.58 -17.3875 1.91 -15.6875 2.25 C-15.0275 5.88 -14.3675 9.51 -13.6875 13.25 C-11.7075 13.25 -9.7275 13.25 -7.6875 13.25 C-7.52314453 12.34507812 -7.52314453 12.34507812 -7.35546875 11.421875 C-5.18520712 0.48234485 -5.18520712 0.48234485 0 0 Z " fill="#DB4E50" transform="translate(547.6875,234.75)"/>
<path d="M0 0 C2.3125 0 2.3125 0 5 1 C7.89449287 5.06793592 9.61950509 7.88908299 9 13 C11.31 13.33 13.62 13.66 16 14 C16.495 7.565 16.495 7.565 17 1 C18.65 0.67 20.3 0.34 22 0 C24 2 24 2 24.265625 4.4609375 C24.26046875 5.42257813 24.2553125 6.38421875 24.25 7.375 C24.25773437 8.80972656 24.25773437 8.80972656 24.265625 10.2734375 C23.99896864 13.01058658 23.39742087 14.65987457 22 17 C24.37305578 17.41780879 24.37305578 17.41780879 27 17 C27.495 16.175 27.99 15.35 28.5 14.5 C28.995 13.675 29.49 12.85 30 12 C32.6875 11.6875 32.6875 11.6875 35 12 C35.6875 14.25 35.6875 14.25 36 17 C35.525625 17.61875 35.05125 18.2375 34.5625 18.875 C32.34258865 21.89407944 32.78972268 24.35519308 33 28 C27.78714992 28.63571342 25.64330669 27.26618712 21.69921875 24.24609375 C15.99112991 20.06016193 8.77417639 20.27102039 2 21 C-2.20939509 22.32139587 -5.17971313 24.15692739 -8.25 27.3125 C-8.8275 27.869375 -9.405 28.42625 -10 29 C-12.25 28.75 -12.25 28.75 -14 28 C-14.08226668 24.95613276 -13.97608217 22.92824652 -13 20 C-13.7425 18.824375 -13.7425 18.824375 -14.5 17.625 C-16 15 -16 15 -15.6875 12.1875 C-15.460625 11.465625 -15.23375 10.74375 -15 10 C-12.25851328 10.37047118 -10.41406801 10.68587944 -8.1875 12.375 C-7 14 -7 14 -7 17 C-6.0925 16.505 -5.185 16.01 -4.25 15.5 C-1 14 -1 14 3 14 C2.525625 12.783125 2.05125 11.56625 1.5625 10.3125 C0.40965212 7.23095399 -0.60187981 4.28449153 -1 1 C-0.67 0.67 -0.34 0.34 0 0 Z " fill="#25B5AD" transform="translate(213,234)"/>
<path d="M0 0 C0.5775 0.2475 1.155 0.495 1.75 0.75 C2.3125 2.6875 2.3125 2.6875 2.75 4.75 C2.42 5.08 2.09 5.41 1.75 5.75 C1.67773498 7.60287502 1.6661878 9.45833878 1.6875 11.3125 C1.69652344 12.32441406 1.70554687 13.33632812 1.71484375 14.37890625 C1.72644531 15.16136719 1.73804688 15.94382813 1.75 16.75 C2.41 16.75 3.07 16.75 3.75 16.75 C3.9975 16.0075 4.245 15.265 4.5 14.5 C5.87495599 11.47509683 7.11212327 9.76719985 9.75 7.75 C12 8 12 8 13.75 8.75 C13.875 11.125 13.875 11.125 13.75 13.75 C13.09 14.41 12.43 15.07 11.75 15.75 C11.33333333 18.25 11.33333333 18.25 11.75 20.75 C12.74 21.41 13.73 22.07 14.75 22.75 C15.245 21.265 15.245 21.265 15.75 19.75 C18.75 17.75 18.75 17.75 20.9375 18.125 C21.535625 18.33125 22.13375 18.5375 22.75 18.75 C23.4375 20.5625 23.4375 20.5625 23.75 22.75 C23.25371094 23.19472656 22.75742187 23.63945312 22.24609375 24.09765625 C20.50740438 25.65368276 20.50740438 25.65368276 20.7109375 27.9765625 C20.91589844 29.16378906 20.91589844 29.16378906 21.125 30.375 C21.36489394 31.82847507 21.58092145 33.28659598 21.75 34.75 C20.75 35.75 20.75 35.75 18.5 36.25 C15.75 35.75 15.75 35.75 14.5546875 34.328125 C14.16539062 33.72484375 13.77609375 33.1215625 13.375 32.5 C10.79395294 28.56050713 8.28667163 26.20977681 3.75 24.75 C-1.8122013 24.06234131 -6.10527524 24.54511796 -11.25 26.75 C-14.0625 26.375 -14.0625 26.375 -16.25 25.75 C-16.085 24.986875 -15.92 24.22375 -15.75 23.4375 C-15.00546191 19.43560777 -14.93050495 18.22924258 -17.25 14.75 C-17.4375 11.125 -17.4375 11.125 -17.25 7.75 C-16.25 6.75 -16.25 6.75 -13.6875 6.6875 C-12.4809375 6.7184375 -12.4809375 6.7184375 -11.25 6.75 C-10.97736328 7.68972656 -10.97736328 7.68972656 -10.69921875 8.6484375 C-10.44785156 9.46570313 -10.19648438 10.28296875 -9.9375 11.125 C-9.69386719 11.93710938 -9.45023437 12.74921875 -9.19921875 13.5859375 C-8.33631815 16.08184629 -8.33631815 16.08184629 -5.25 17.75 C-5.58 16.76 -5.91 15.77 -6.25 14.75 C-7.14364536 5.15429985 -7.14364536 5.15429985 -4.5 1 C-2.25 -0.25 -2.25 -0.25 0 0 Z " fill="#DB5151" transform="translate(466.25,229.25)"/>
<path d="M0 0 C2.3125 -0.25 2.3125 -0.25 5 0 C7.49200173 2.39796393 7.97814727 3.75874591 8.29296875 7.234375 C8.25816406 8.39453125 8.22335937 9.5546875 8.1875 10.75 C8.16042969 11.92046875 8.13335937 13.0909375 8.10546875 14.296875 C8.07066406 15.18890625 8.03585937 16.0809375 8 17 C11.89400067 13.4798234 12.5950141 11.26481665 13 6 C14.66611905 5.957279 16.33382885 5.95936168 18 6 C19 7 19 7 19.125 10.75 C19.10288477 13.2269055 18.93671124 15.30941173 18.4375 17.75 C17.83300877 19.99953629 17.83300877 19.99953629 18.5625 22.1875 C18.706875 22.785625 18.85125 23.38375 19 24 C18.34 24.66 17.68 25.32 17 26 C14.54901444 25.60467975 12.36095721 24.78698574 10 24 C5.08733521 23.48421247 1.1709773 23.42555831 -3.3125 25.625 C-7.18238508 29.04489844 -10.12699256 32.69048885 -13 37 C-14.65 36.67 -16.3 36.34 -18 36 C-17.82210938 35.07767578 -17.82210938 35.07767578 -17.640625 34.13671875 C-17.25415979 31.71358189 -16.95211755 29.45506404 -17 27 C-18.76666979 24.85745428 -18.76666979 24.85745428 -21 24 C-20.67 22.35 -20.34 20.7 -20 19 C-15.44615385 18.63076923 -15.44615385 18.63076923 -13.1875 20.5 C-12.795625 20.995 -12.40375 21.49 -12 22 C-11.01 21.67 -10.02 21.34 -9 21 C-9.44703986 16.52116304 -9.44703986 16.52116304 -12 13 C-11.625 10.875 -11.625 10.875 -11 9 C-9.68 8.67 -8.36 8.34 -7 8 C-2 13.625 -2 13.625 -2 17 C-1.01 17 -0.02 17 1 17 C1.02687279 15.18757948 1.04633715 13.37504767 1.0625 11.5625 C1.07990234 10.04849609 1.07990234 10.04849609 1.09765625 8.50390625 C1.28612676 6.05978933 1.28612676 6.05978933 0 5 C-0.04063832 3.33382885 -0.042721 1.66611905 0 0 Z " fill="#2CB5AB" transform="translate(294,224)"/>
<path d="M0 0 C2.98401534 0.22704465 3.97219909 0.97131072 6.078125 3.14453125 C6.79484375 4.02496094 7.5115625 4.90539062 8.25 5.8125 C13.70334926 12.02079174 17.97180187 15.05712268 26.3125 15.625 C36.13833698 15.21728892 43.33985385 9.24421931 49.9296875 2.44140625 C52 1 52 1 54.7578125 1.27734375 C55.86769531 1.63505859 55.86769531 1.63505859 57 2 C56.39298062 7.85413606 53.24688923 10.11665757 48.9296875 13.7734375 C40.49463306 20.18407887 33.25498024 22.98999402 22.5546875 22.51953125 C13.6907915 21.22403876 6.41715341 16.14483475 0.6484375 9.42578125 C-1.07062755 7.10445872 -2.05016987 5.61876167 -1.8125 2.6875 C-1 1 -1 1 0 0 Z " fill="#DB5050" transform="translate(477,327)"/>
<path d="M0 0 C10.23 0 20.46 0 31 0 C31 4.62 31 9.24 31 14 C20.77 14 10.54 14 0 14 C0 9.38 0 4.76 0 0 Z " fill="#FBF4F3" transform="translate(390,406)"/>
<path d="M0 0 C0.495 1.98 0.495 1.98 1 4 C-9.16676332 11.69376683 -19.6444059 13.07494831 -32.09375 11.64453125 C-41.62057502 10.14636119 -41.62057502 10.14636119 -45 7 C-45.3125 4.3125 -45.3125 4.3125 -45 2 C-41.51705673 0.83901891 -40.23618915 0.89208599 -36.828125 2.44921875 C-32.78741957 4.26338061 -29.2039432 4.53564565 -24.8125 4.5 C-24.07362549 4.50008057 -23.33475098 4.50016113 -22.57348633 4.50024414 C-16.5395762 4.3426786 -11.79617875 2.79519035 -6.41796875 -0.00390625 C-3.72501675 -1.11328066 -2.66776213 -1.03849948 0 0 Z " fill="#2EB7AD" transform="translate(291,325)"/>
<path d="M0 0 C0.33 0 0.66 0 1 0 C1.33 4.62 1.66 9.24 2 14 C14.87 14.495 14.87 14.495 28 15 C28.495 16.485 28.495 16.485 29 18 C31.64 18 34.28 18 37 18 C37 19.32 37 20.64 37 22 C23.8 22 10.6 22 -3 22 C-3.82465202 17.8767399 -4.16377402 14.47403759 -4.1875 10.3125 C-4.20167969 9.17425781 -4.21585937 8.03601563 -4.23046875 6.86328125 C-4 4 -4 4 -2 2 C-1.67 2.66 -1.34 3.32 -1 4 C-0.67 2.68 -0.34 1.36 0 0 Z " fill="#DB494E" transform="translate(389,406)"/>
<path d="M0 0 C1.13917374 0.00666183 1.13917374 0.00666183 2.30136108 0.01345825 C3.59247299 0.01368484 3.59247299 0.01368484 4.90966797 0.01391602 C5.83991791 0.02423859 6.77016785 0.03456116 7.72860718 0.04519653 C8.68020721 0.04802643 9.63180725 0.05085632 10.61224365 0.05377197 C13.6589706 0.06498914 16.70540621 0.09009641 19.75204468 0.11550903 C21.81454044 0.12553685 23.8770408 0.13466304 25.93954468 0.14285278 C31.00215735 0.16493349 36.06455158 0.19947374 41.12704468 0.24050903 C40.16798218 0.70457153 40.16798218 0.70457153 39.18954468 1.17800903 C37.19093646 2.07502534 37.19093646 2.07502534 36.12704468 3.24050903 C33.98317811 3.39909746 31.83437629 3.49180201 29.68563843 3.55691528 C27.72787476 3.61975708 27.72787476 3.61975708 25.7305603 3.68386841 C24.34189138 3.72368511 22.95321946 3.76339728 21.56454468 3.80300903 C20.17195284 3.84618892 18.7793744 3.88980303 17.3868103 3.93386841 C13.96699667 4.04036779 10.54710705 4.14237826 7.12704468 4.24050903 C7.12704468 5.23050903 7.12704468 6.22050903 7.12704468 7.24050903 C5.80704468 7.57050903 4.48704468 7.90050903 3.12704468 8.24050903 C2.79704468 11.54050903 2.46704468 14.84050903 2.12704468 18.24050903 C1.79704468 18.24050903 1.46704468 18.24050903 1.12704468 18.24050903 C0.79704468 16.26050903 0.46704468 14.28050903 0.12704468 12.24050903 C0.12704468 18.18050903 0.12704468 24.12050903 0.12704468 30.24050903 C13.32704468 30.24050903 26.52704468 30.24050903 40.12704468 30.24050903 C40.12704468 30.57050903 40.12704468 30.90050903 40.12704468 31.24050903 C34.34297499 31.31461018 28.55918097 31.36908788 22.77474976 31.40530396 C20.80660185 31.42039985 18.83848762 31.44087851 16.87045288 31.46682739 C14.04313856 31.50317552 11.21626858 31.52022717 8.38876343 31.53347778 C7.50742233 31.54896164 6.62608124 31.5644455 5.71803284 31.58039856 C4.8974086 31.58062515 4.07678436 31.58085175 3.23129272 31.58108521 C2.50959396 31.58774704 1.7878952 31.59440887 1.04432678 31.60127258 C-1.45675258 31.13065938 -2.33796688 30.23648584 -3.87295532 28.24050903 C-4.24526978 25.54495239 -4.24526978 25.54495239 -4.23623657 22.33035278 C-4.23559204 21.17599731 -4.23494751 20.02164185 -4.23428345 18.83230591 C-4.21817017 17.62638794 -4.20205688 16.42046997 -4.18545532 15.17800903 C-4.18867798 13.96822388 -4.19190063 12.75843872 -4.19522095 11.51199341 C-4.12769638 0.53004375 -4.12769638 0.53004375 0 0 Z " fill="#DD5C60" transform="translate(385.8729553222656,397.7594909667969)"/>
<path d="M0 0 C0.680625 0.70125 1.36125 1.4025 2.0625 2.125 C3.03673336 3.08834807 4.01633007 4.04628956 5 5 C5.50789063 5.49242187 6.01578125 5.98484375 6.5390625 6.4921875 C11.19439236 10.75038022 16.2788863 13.39844729 22 16 C20.68 16.33 19.36 16.66 18 17 C18.33 17.99 18.66 18.98 19 20 C19.99 19.34 20.98 18.68 22 18 C22 21.33333333 22 24.66666667 22 28 C12.54072368 22.0879523 4.67349429 13.18289812 0 3 C0 2.01 0 1.02 0 0 Z " fill="#31B9B3" transform="translate(18,484)"/>
<path d="M0 0 C0.33 0 0.66 0 1 0 C1.31825658 1.91571922 1.62919439 3.83265417 1.9375 5.75 C2.11152344 6.81734375 2.28554688 7.8846875 2.46484375 8.984375 C4.12442545 20.81175204 4.1862759 32.6189648 4.18530273 44.53930664 C4.18751773 47.58688764 4.20581109 50.63412204 4.22460938 53.68164062 C4.22753884 55.62239461 4.22952662 57.56315029 4.23046875 59.50390625 C4.23765427 60.41322403 4.24483978 61.32254181 4.25224304 62.25941467 C4.24916641 63.10136887 4.24608978 63.94332306 4.24291992 64.81079102 C4.24434494 65.54959 4.24576996 66.28838898 4.24723816 67.04957581 C4 69 4 69 2 72 C1.54398739 74.50896686 1.54398739 74.50896686 1.375 77.1875 C1.30023437 78.08855469 1.22546875 78.98960937 1.1484375 79.91796875 C1.07496094 80.94857422 1.07496094 80.94857422 1 82 C0.67 82 0.34 82 0 82 C-0.02705729 80.22925083 -0.04642195 78.45838289 -0.0625 76.6875 C-0.07410156 75.70136719 -0.08570313 74.71523438 -0.09765625 73.69921875 C0 71 0 71 1 68 C1.09261451 66.30373663 1.12791543 64.60406261 1.12939453 62.90527344 C1.13254669 61.86699402 1.13569885 60.8287146 1.13894653 59.75897217 C1.1369223 58.6371051 1.13489807 57.51523804 1.1328125 56.359375 C1.13376923 55.20383118 1.13472595 54.04828735 1.13571167 52.85772705 C1.13639277 50.40987087 1.13454339 47.96201288 1.13037109 45.51416016 C1.12504128 41.77892963 1.13030846 38.04382042 1.13671875 34.30859375 C1.13605758 31.92968724 1.1347756 29.5507808 1.1328125 27.171875 C1.13483673 26.05810486 1.13686096 24.94433472 1.13894653 23.79681396 C1.12280553 18.41562087 0.91304796 13.30320107 0 8 C-0.10751986 5.3206052 -0.0470821 2.68367951 0 0 Z " fill="#E8A4A5" transform="translate(694,197)"/>
<path d="M0 0 C1.32 0.66 2.64 1.32 4 2 C4.48124522 25.34039296 4.48124522 25.34039296 2 35 C1.01 35.66 0.02 36.32 -1 37 C-1.19272088 24.64445007 -0.59950448 12.33767475 0 0 Z " fill="#38BBB6" transform="translate(209,389)"/>
<path d="M0 0 C0.268125 0.556875 0.53625 1.11375 0.8125 1.6875 C1.99088683 4.07880579 1.99088683 4.07880579 3.625 6.5 C5 9 5 9 5 13 C0.05 14.485 0.05 14.485 -5 16 C-5.66 14.35 -6.32 12.7 -7 11 C-6.34 10.67 -5.68 10.34 -5 10 C-4.27306096 8.02111039 -3.60183749 6.02045442 -3 4 C-2.67 4.66 -2.34 5.32 -2 6 C-1.34 6 -0.68 6 0 6 C0 4.02 0 2.04 0 0 Z " fill="#E8D1AE" transform="translate(211,235)"/>
<path d="M0 0 C0.86625 0.37125 0.86625 0.37125 1.75 0.75 C2.3125 2.6875 2.3125 2.6875 2.75 4.75 C2.42 5.08 2.09 5.41 1.75 5.75 C1.51924918 7.09747084 1.33846937 8.45377565 1.1875 9.8125 C1.043125 11.111875 0.89875 12.41125 0.75 13.75 C0.42 13.75 0.09 13.75 -0.25 13.75 C-0.58 11.44 -0.91 9.13 -1.25 6.75 C-1.58 6.75 -1.91 6.75 -2.25 6.75 C-2.91 10.38 -3.57 14.01 -4.25 17.75 C-7.21385902 13.30421147 -6.88910806 8.96418646 -6.25 3.75 C-3.60849057 -0.4009434 -3.60849057 -0.4009434 0 0 Z " fill="#DD5A56" transform="translate(466.25,229.25)"/>
<path d="M0 0 C3.96502948 0.45057153 7.35465276 1.39175857 11 3 C10.01 3.495 10.01 3.495 9 4 C9 5.65 9 7.3 9 9 C9.99 9.33 10.98 9.66 12 10 C2.66756032 9.20911528 2.66756032 9.20911528 -1 6 C-1.375 3.375 -1.375 3.375 -1 1 C-0.67 0.67 -0.34 0.34 0 0 Z " fill="#24B7AA" transform="translate(247,326)"/>
<path d="M0 0 C1.65 0.33 3.3 0.66 5 1 C5.99842851 4.10622202 5.93947552 5.89973077 5 9 C4.65939189 10.66519519 4.32441604 12.33157466 4 14 C4.66 14.33 5.32 14.66 6 15 C5.67 16.32 5.34 17.64 5 19 C3.68 18.67 2.36 18.34 1 18 C0.91773332 14.95613276 1.02391783 12.92824652 2 10 C1.505 9.21625 1.01 8.4325 0.5 7.625 C-1 5 -1 5 -0.6875 2.1875 C-0.460625 1.465625 -0.23375 0.74375 0 0 Z " fill="#2CB6AD" transform="translate(198,244)"/>
<path d="M0 0 C0.66 0 1.32 0 2 0 C2 0.66 2 1.32 2 2 C2.66 2 3.32 2 4 2 C4.33 1.34 4.66 0.68 5 0 C5 0.66 5 1.32 5 2 C7.475 2.495 7.475 2.495 10 3 C6.42355152 4.2380014 3.66305234 3.74926071 0 3 C0.33 3.66 0.66 4.32 1 5 C2.093125 5.2475 3.18625 5.495 4.3125 5.75 C8.77913915 7.26411497 9.79425718 8.94143321 12 13 C9.98492462 11.99471631 7.97204278 10.98577992 5.96484375 9.96484375 C5.29582031 9.62582031 4.62679687 9.28679687 3.9375 8.9375 C3.26589844 8.59589844 2.59429687 8.25429688 1.90234375 7.90234375 C-2.26170968 5.92719726 -5.62243586 5.89561868 -10.1875 5.9375 C-11.45980469 5.94652344 -12.73210937 5.95554688 -14.04296875 5.96484375 C-15.01878906 5.97644531 -15.99460938 5.98804688 -17 6 C-16.67 5.34 -16.34 4.68 -16 4 C-12.69958535 3.64086397 -9.41887757 3.55541597 -6.1015625 3.44140625 C-2.77049504 2.96733745 -2.06438851 2.49724417 0 0 Z " fill="#3EB7A8" transform="translate(230,249)"/>
<path d="M0 0 C0.309375 0.639375 0.61875 1.27875 0.9375 1.9375 C1.8345163 3.93610821 1.8345163 3.93610821 3 5 C3.23529412 12.29411765 3.23529412 12.29411765 2 16 C1.01 16 0.02 16 -1 16 C-1.45375 15.071875 -1.9075 14.14375 -2.375 13.1875 C-3.9421633 9.96078611 -3.9421633 9.96078611 -6 7 C-4.7934375 6.6596875 -4.7934375 6.6596875 -3.5625 6.3125 C-2.716875 5.879375 -1.87125 5.44625 -1 5 C-0.10613836 2.45224694 -0.10613836 2.45224694 0 0 Z " fill="#E5D1AD" transform="translate(293,225)"/>
<path d="M0 0 C0 0.66 0 1.32 0 2 C4.29 2.33 8.58 2.66 13 3 C7.58139657 6.61240229 1.40722372 6.118648 -4.9375 6.0625 C-5.62134766 6.05798828 -6.30519531 6.05347656 -7.00976562 6.04882812 C-8.67321604 6.0371956 -10.3366205 6.01926694 -12 6 C-10.66144904 3.32289809 -9.27941912 3.04870906 -6.5625 1.875 C-5.75941406 1.52179687 -4.95632813 1.16859375 -4.12890625 0.8046875 C-2 0 -2 0 0 0 Z " fill="#DA6C70" transform="translate(488,524)"/>
<path d="M0 0 C1.65 0.33 3.3 0.66 5 1 C5.09796875 1.77085937 5.1959375 2.54171875 5.296875 3.3359375 C5.44640625 4.33882812 5.5959375 5.34171875 5.75 6.375 C5.88921875 7.37273437 6.0284375 8.37046875 6.171875 9.3984375 C6.74386889 12.14561047 6.74386889 12.14561047 9.078125 13.3515625 C9.71234375 13.56554687 10.3465625 13.77953125 11 14 C9.35 14 7.7 14 6 14 C5.01 11.03 4.02 8.06 3 5 C2.01 5.33 1.02 5.66 0 6 C0 8.31 0 10.62 0 13 C-2.45811625 9.31282562 -2.31118164 7.35654296 -2 3 C-1.34 2.01 -0.68 1.02 0 0 Z " fill="#DD625B" transform="translate(527,236)"/>
<path d="M0 0 C2.625 -0.1875 2.625 -0.1875 5 0 C5.75 2.1875 5.75 2.1875 6 5 C4.0625 7.8125 4.0625 7.8125 2 10 C1.34 9.67 0.68 9.34 0 9 C0 8.01 0 7.02 0 6 C-0.66 6 -1.32 6 -2 6 C-2.33 6.66 -2.66 7.32 -3 8 C-2.45276317 4.62537285 -1.9451 2.91765 0 0 Z " fill="#DC5855" transform="translate(545,235)"/>
<path d="M0 0 C3.11227851 4.66841777 3.11824029 8.17597138 3.0625 13.75 C3.05347656 14.92046875 3.04445313 16.0909375 3.03515625 17.296875 C3.02355469 18.18890625 3.01195312 19.0809375 3 20 C1.02 20.99 1.02 20.99 -1 22 C-1.02698422 19.56242587 -1.04683099 17.12515085 -1.0625 14.6875 C-1.07087891 13.99720703 -1.07925781 13.30691406 -1.08789062 12.59570312 C-1.10307906 9.4516975 -1.00193327 7.00579981 0 4 C0 2.68 0 1.36 0 0 Z " fill="#45BDBC" transform="translate(330,128)"/>
<path d="M0 0 C1.65 0 3.3 0 5 0 C5.75 2.125 5.75 2.125 6 5 C4.0625 8.3125 4.0625 8.3125 2 11 C-0.47141532 8.8509432 -1.69898137 7.31120491 -2 4 C-1.0625 1.75 -1.0625 1.75 0 0 Z " fill="#36B6AB" transform="translate(243,246)"/>
<path d="M0 0 C0.2475 0.598125 0.495 1.19625 0.75 1.8125 C2.16370012 4.28647521 3.65055383 5.43370255 6 7 C4.02 7.33 2.04 7.66 0 8 C0 8.66 0 9.32 0 10 C-2.31 10 -4.62 10 -7 10 C-7 9.34 -7 8.68 -7 8 C-7.66 7.67 -8.32 7.34 -9 7 C-7.88625 6.773125 -6.7725 6.54625 -5.625 6.3125 C-1.83961627 5.39376342 -1.83961627 5.39376342 -0.5625 2.375 C-0.376875 1.59125 -0.19125 0.8075 0 0 Z " fill="#1BB6B1" transform="translate(220,243)"/>
<path d="M0 0 C0.33 0.66 0.66 1.32 1 2 C1.66 2 2.32 2 3 2 C3.33 2.99 3.66 3.98 4 5 C3.0479279 6.00596297 2.08812654 7.00461563 1.125 8 C0.59132813 8.556875 0.05765625 9.11375 -0.4921875 9.6875 C-2 11 -2 11 -4 11 C-4.12375 11.763125 -4.2475 12.52625 -4.375 13.3125 C-5 16 -5 16 -7 19 C-7.66 19 -8.32 19 -9 19 C-7.39369175 14.75707468 -5.4231838 10.72974893 -3.375 6.6875 C-3.05015625 6.04232422 -2.7253125 5.39714844 -2.390625 4.73242188 C-1.59558044 3.15402459 -0.79804366 1.57688306 0 0 Z " fill="#DD555E" transform="translate(560,443)"/>
<path d="M0 0 C4.70588235 0.70588235 4.70588235 0.70588235 6 2 C6.07226502 3.85287502 6.0838122 5.70833878 6.0625 7.5625 C6.05347656 8.57441406 6.04445312 9.58632812 6.03515625 10.62890625 C6.02355469 11.41136719 6.01195312 12.19382813 6 13 C5.67 13 5.34 13 5 13 C4.67 10.69 4.34 8.38 4 6 C3.01 5.67 2.02 5.34 1 5 C1 7.64 1 10.28 1 13 C0.01 13.33 -0.98 13.66 -2 14 C-1.85970581 11.8537974 -1.71261836 9.70803782 -1.5625 7.5625 C-1.48128906 6.36753906 -1.40007812 5.17257813 -1.31640625 3.94140625 C-1 1 -1 1 0 0 Z " fill="#47BAA9" transform="translate(231,234)"/>
<path d="M0 0 C0 0.33 0 0.66 0 1 C-4.87348823 1.79348625 -9.52940184 2.11813526 -14.46484375 2.09765625 C-15.48210289 2.09553383 -15.48210289 2.09553383 -16.51991272 2.09336853 C-18.65915578 2.08782745 -20.79828925 2.07528653 -22.9375 2.0625 C-24.39908702 2.05747736 -25.86067569 2.0529158 -27.32226562 2.04882812 C-30.88154526 2.03787745 -34.44076191 2.02065445 -38 2 C-38.33 2.99 -38.66 3.98 -39 5 C-39.66 5 -40.32 5 -41 5 C-40.34 3.68 -39.68 2.36 -39 1 C-34.56262213 0.82997513 -30.12508207 0.66460204 -25.6875 0.5 C-24.44419922 0.45230469 -23.20089844 0.40460938 -21.91992188 0.35546875 C-14.60895533 0.08682431 -7.31586506 -0.06804577 0 0 Z " fill="#DBCFB4" transform="translate(210,223)"/>
<path d="M0 0 C0 3 0 3 -1.46875 4.796875 C-2.1390625 5.44140625 -2.809375 6.0859375 -3.5 6.75 C-4.22960937 7.45253906 -4.95921875 8.15507812 -5.7109375 8.87890625 C-10.98810624 13.76884247 -16.45137375 18.42238334 -22 23 C-22.66 22.67 -23.32 22.34 -24 22 C-10.64014398 9.59732879 -10.64014398 9.59732879 -4.5859375 4.40234375 C-2.99155649 2.99253394 -1.48872735 1.52030642 0 0 Z " fill="#F5E5E2" transform="translate(600,469)"/>
<path d="M0 0 C0.33 0 0.66 0 1 0 C1.95261487 4.76307437 2.08333357 9.1666528 2 14 C1.01 14.495 1.01 14.495 0 15 C-0.33 15.99 -0.66 16.98 -1 18 C-1.99 18.33 -2.98 18.66 -4 19 C-3.52202924 16.58309124 -3.0426678 14.16647237 -2.5625 11.75 C-2.42779297 11.06808594 -2.29308594 10.38617188 -2.15429688 9.68359375 C-1.50779289 6.43530542 -0.84997305 3.20184022 0 0 Z " fill="#49C0BC" transform="translate(138,446)"/>
<path d="M0 0 C1.48734 3.96623999 1.02962457 7.97510397 0 12 C-1.26660533 14.04291182 -2.59886384 16.04690112 -4 18 C-5.24324147 21.2249208 -5.24324147 21.2249208 -6 24 C-7.3610089 21.27798219 -6.65965169 20.14054385 -5.8203125 17.24609375 C-5.55089844 16.30958984 -5.28148437 15.37308594 -5.00390625 14.40820312 C-4.71386719 13.42787109 -4.42382812 12.44753906 -4.125 11.4375 C-3.84269531 10.45330078 -3.56039062 9.46910156 -3.26953125 8.45507812 C-1.1429027 1.1429027 -1.1429027 1.1429027 0 0 Z " fill="#DB696F" transform="translate(585,346)"/>
<path d="M0 0 C1.29550781 -0.02126953 1.29550781 -0.02126953 2.6171875 -0.04296875 C5.2491288 0.19890748 6.86480544 0.85766459 9.125 2.1875 C5.33336973 4.71525351 2.31625969 4.41193035 -2.0625 4.3125 C-2.81208984 4.30347656 -3.56167969 4.29445312 -4.33398438 4.28515625 C-6.18112654 4.26162578 -8.02810412 4.22575561 -9.875 4.1875 C-6.60360243 0.76740254 -4.7369606 0.03514066 0 0 Z " fill="#E7D2AF" transform="translate(298.875,246.8125)"/>
<path d="M0 0 C8.13384873 -0.14788816 15.96807011 0.80375512 24 2 C24 2.99 24 3.98 24 5 C15.86290495 4.28621973 7.98268072 2.67226118 0 1 C0 0.67 0 0.34 0 0 Z " fill="#DD615D" transform="translate(513,224)"/>
<path d="M0 0 C1.65 0 3.3 0 5 0 C4.773125 0.7425 4.54625 1.485 4.3125 2.25 C3.67618442 5.04497569 3.67618442 5.04497569 5.5 7 C7 9 7 9 6.6875 11.75 C6.460625 12.4925 6.23375 13.235 6 14 C4.68 14 3.36 14 2 14 C1.34 13.01 0.68 12.02 0 11 C0.99 10.67 1.98 10.34 3 10 C3.33 9.01 3.66 8.02 4 7 C3.34 7 2.68 7 2 7 C2 5.02 2 3.04 2 1 C1.34 0.67 0.68 0.34 0 0 Z " fill="#DED1B1" transform="translate(279,232)"/>
<path d="M0 0 C0.70125 0.721875 1.4025 1.44375 2.125 2.1875 C4.92770745 4.99823813 7.92262792 7.49516226 11 10 C9.68 11.32 8.36 12.64 7 14 C5.82508418 12.23462904 4.66031316 10.46250287 3.5 8.6875 C2.8503125 7.70136719 2.200625 6.71523438 1.53125 5.69921875 C0 3 0 3 0 0 Z " fill="#46BEB6" transform="translate(18,484)"/>
<path d="M0 0 C0.33 0 0.66 0 1 0 C0.67 2.31 0.34 4.62 0 7 C-0.99 7.33 -1.98 7.66 -3 8 C-3.33 8.66 -3.66 9.32 -4 10 C-1.03 10.495 -1.03 10.495 2 11 C-1.01031744 11.93423645 -1.86650268 12.04449911 -5 11 C-5.94921875 8.71484375 -5.94921875 8.71484375 -6.6875 5.9375 C-6.93886719 5.01839844 -7.19023437 4.09929687 -7.44921875 3.15234375 C-7.63097656 2.44207031 -7.81273437 1.73179687 -8 1 C-6.68 1 -5.36 1 -4 1 C-3.67 1.99 -3.34 2.98 -3 4 C-2.2884375 3.01 -2.2884375 3.01 -1.5625 2 C-1.046875 1.34 -0.53125 0.68 0 0 Z " fill="#E7D3B0" transform="translate(227,236)"/>
<path d="M0 0 C10.23 0 20.46 0 31 0 C31 0.33 31 0.66 31 1 C29.75911621 1.00616333 29.75911621 1.00616333 28.49316406 1.01245117 C24.74471594 1.04534615 20.9979019 1.11598915 17.25 1.1875 C15.94804687 1.19330078 14.64609375 1.19910156 13.3046875 1.20507812 C12.05429688 1.23408203 10.80390625 1.26308594 9.515625 1.29296875 C8.36352539 1.3086792 7.21142578 1.32438965 6.02441406 1.34057617 C2.14724751 2.18592868 1.1141188 3.74035545 -1 7 C-0.67 4.69 -0.34 2.38 0 0 Z " fill="#43BBA2" transform="translate(168,223)"/>
<path d="M0 0 C2.375 0.625 2.375 0.625 5 2 C6.3125 5.125 6.3125 5.125 7 8 C4.6875 8.25 4.6875 8.25 2 8 C0.125 6.25 0.125 6.25 -1 4 C-0.6875 1.75 -0.6875 1.75 0 0 Z " fill="#DC4E4E" transform="translate(476,328)"/>
<path d="M0 0 C2 2 2 2 2.125 4.625 C2.08375 5.40875 2.0425 6.1925 2 7 C1.34 7 0.68 7 0 7 C0.33 8.32 0.66 9.64 1 11 C-0.32 10.67 -1.64 10.34 -3 10 C-3 9.34 -3 8.68 -3 8 C-3.66 7.67 -4.32 7.34 -5 7 C-4.67 6.01 -4.34 5.02 -4 4 C-3.34 4 -2.68 4 -2 4 C-1.34 2.68 -0.68 1.36 0 0 Z M-3 5 C-2 7 -2 7 -2 7 Z " fill="#1CB6B1" transform="translate(308,237)"/>
<path d="M0 0 C0 3.96 0 7.92 0 12 C-0.33 12 -0.66 12 -1 12 C-1.33 9.03 -1.66 6.06 -2 3 C-3.65 2.67 -5.3 2.34 -7 2 C-7.33 5.63 -7.66 9.26 -8 13 C-8.33 13 -8.66 13 -9 13 C-9 8.71 -9 4.42 -9 0 C-5 -1 -5 -1 0 0 Z " fill="#E9CFB5" transform="translate(238,233)"/>
<path d="M0 0 C2.31 0 4.62 0 7 0 C7 0.66 7 1.32 7 2 C8.98 2 10.96 2 13 2 C13 2.33 13 2.66 13 3 C10.95928485 3.33910994 8.91737379 3.67102704 6.875 4 C5.16957031 4.2784375 5.16957031 4.2784375 3.4296875 4.5625 C0.23862398 4.96956049 -2.78817791 5.07809902 -6 5 C-3.8614515 2.8614515 -2.86724686 2.57344937 0 2 C0 1.34 0 0.68 0 0 Z " fill="#2EB6AA" transform="translate(220,217)"/>
<path d="M0 0 C0.66 0.66 1.32 1.32 2 2 C1.828125 4.71484375 1.828125 4.71484375 1.25 7.9375 C1.06953125 8.99839844 0.8890625 10.05929687 0.703125 11.15234375 C0 14 0 14 -2 17 C-1.67 14.69 -1.34 12.38 -1 10 C-1.66 10 -2.32 10 -3 10 C-2.69201674 8.51988629 -2.378482 7.04092675 -2.0625 5.5625 C-1.88847656 4.73878906 -1.71445312 3.91507812 -1.53515625 3.06640625 C-1 1 -1 1 0 0 Z " fill="#D9575A" transform="translate(685,308)"/>
<path d="M0 0 C0.33 0.66 0.66 1.32 1 2 C1.763125 1.814375 2.52625 1.62875 3.3125 1.4375 C6 1 6 1 9 2 C7.08594633 2.67413211 5.16863974 3.3390332 3.25 4 C2.18265625 4.37125 1.1153125 4.7425 0.015625 5.125 C-3 6 -3 6 -7 6 C-7 5.34 -7 4.68 -7 4 C-6.34 4 -5.68 4 -5 4 C-4.67 3.01 -4.34 2.02 -4 1 C-2 0 -2 0 0 0 Z " fill="#2EB9AB" transform="translate(263,208)"/>
<path d="M0 0 C0.66 0 1.32 0 2 0 C4.99481865 4.40414508 4.99481865 4.40414508 6 7 C5.25 10.4375 5.25 10.4375 4 13 C3.566875 12.1028125 3.566875 12.1028125 3.125 11.1875 C1.95257974 8.80672208 1.95257974 8.80672208 0 6 C-0.125 2.8125 -0.125 2.8125 0 0 Z " fill="#DE4B4F" transform="translate(496,396)"/>
<path d="M0 0 C0.33 0 0.66 0 1 0 C0.85851011 1.6045556 0.71164314 3.20863767 0.5625 4.8125 C0.48128906 5.70582031 0.40007812 6.59914063 0.31640625 7.51953125 C0 10 0 10 -1 13 C-1.03874921 14.66621616 -1.0450286 16.33394172 -1 18 C-3.10827055 14.83759418 -3.33817465 13.49342531 -3.625 9.8125 C-3.69976562 8.91144531 -3.77453125 8.01039063 -3.8515625 7.08203125 C-3.90054688 6.39496094 -3.94953125 5.70789063 -4 5 C-3.01 5 -2.02 5 -1 5 C-0.67 3.35 -0.34 1.7 0 0 Z " fill="#3EBFBA" transform="translate(139,388)"/>
<path d="M0 0 C0.99 0 1.98 0 3 0 C2.979375 0.7425 2.95875 1.485 2.9375 2.25 C2.88266896 4.93826222 2.88266896 4.93826222 3.625 7.1875 C3.74875 7.785625 3.8725 8.38375 4 9 C3.34 9.66 2.68 10.32 2 11 C-0.125 10.625 -0.125 10.625 -2 10 C-1.67 8.35 -1.34 6.7 -1 5 C-0.34 5 0.32 5 1 5 C0.67 3.35 0.34 1.7 0 0 Z " fill="#35B7A8" transform="translate(309,239)"/>
<path d="M0 0 C2.1640625 0.0234375 2.1640625 0.0234375 4.625 0.375 C5.85089844 0.54128906 5.85089844 0.54128906 7.1015625 0.7109375 C7.72804688 0.80632813 8.35453125 0.90171875 9 1 C6.6870518 3.3129482 5.52095125 3.49580975 2.375 4.125 C1.55773437 4.29257812 0.74046875 4.46015625 -0.1015625 4.6328125 C-1.04128906 4.81457031 -1.04128906 4.81457031 -2 5 C-2 2 -2 2 0 0 Z " fill="#D7555B" transform="translate(520,518)"/>
<path d="M0 0 C0.66 0.33 1.32 0.66 2 1 C2 1.99 2 2.98 2 4 C1.34 4 0.68 4 0 4 C0 4.99 0 5.98 0 7 C-0.639375 7.12375 -1.27875 7.2475 -1.9375 7.375 C-2.9584375 7.684375 -2.9584375 7.684375 -4 8 C-4.33 8.66 -4.66 9.32 -5 10 C-5 4.69520066 -3.4637943 3.81017373 0 0 Z " fill="#DC585E" transform="translate(527,492)"/>
<path d="M0 0 C1.20212341 4.12943156 1.05248208 7.84588512 0 12 C-3.13924051 17.56962025 -3.13924051 17.56962025 -6 19 C-5.72736328 18.19949219 -5.72736328 18.19949219 -5.44921875 17.3828125 C-3.5063945 11.62408217 -1.71615568 5.83006078 0 0 Z " fill="#F5DFDC" transform="translate(679,336)"/>
<path d="M0 0 C2 2 2 2 2.125 4.625 C2.08375 5.40875 2.0425 6.1925 2 7 C1.34 6.01 0.68 5.02 0 4 C-0.66 5.65 -1.32 7.3 -2 9 C-4.64 9.33 -7.28 9.66 -10 10 C-9.34 9.34 -8.68 8.68 -8 8 C-6.68 8 -5.36 8 -4 8 C-4 7.01 -4 6.02 -4 5 C-3.34 5 -2.68 5 -2 5 C-2 4.01 -2 3.02 -2 2 C-1.34 2 -0.68 2 0 2 C0 1.34 0 0.68 0 0 Z " fill="#36B3A5" transform="translate(220,240)"/>
<path d="M0 0 C0.66 1.32 1.32 2.64 2 4 C5.26954202 3.43628586 6.82575883 2.50037734 9 0 C9.66 0.33 10.32 0.66 11 1 C10.34 2.65 9.68 4.3 9 6 C2.84765625 6.09765625 2.84765625 6.09765625 1 6 C0 5 0 5 -0.0625 2.4375 C-0.041875 1.633125 -0.02125 0.82875 0 0 Z " fill="#D6CEAF" transform="translate(198,258)"/>
<path d="M0 0 C0.66 0.33 1.32 0.66 2 1 C2 4.63 2 8.26 2 12 C1.67 11.34 1.34 10.68 1 10 C0.01 9.67 -0.98 9.34 -2 9 C-1.125 1.125 -1.125 1.125 0 0 Z " fill="#DF454D" transform="translate(464,235)"/>
<path d="M0 0 C3 1 3 1 5 4 C4.98283648 6.61743658 4.8673225 9.09222605 4.625 11.6875 C4.56828125 12.38939453 4.5115625 13.09128906 4.453125 13.81445312 C4.31195359 15.54380285 4.15728041 17.27204088 4 19 C3.67 19 3.34 19 3 19 C2.95101563 18.21496094 2.90203125 17.42992187 2.8515625 16.62109375 C2.4379964 10.80977697 1.88217852 5.521057 0 0 Z " fill="#E1F2F2" transform="translate(342,171)"/>
<path d="M0 0 C1.32 0.66 2.64 1.32 4 2 C2.5682384 2.69937202 1.12932968 3.38412718 -0.3125 4.0625 C-1.51326172 4.63677734 -1.51326172 4.63677734 -2.73828125 5.22265625 C-5 6 -5 6 -8 5 C-7.34 3.68 -6.68 2.36 -6 1 C-4.02 1.66 -2.04 2.32 0 3 C0 2.01 0 1.02 0 0 Z " fill="#D9585D" transform="translate(538,512)"/>
<path d="M0 0 C2.31 0.33 4.62 0.66 7 1 C7 1.99 7 2.98 7 4 C3.86501708 5.85776765 1.62528568 6.20140476 -2 6 C-2 5.34 -2 4.68 -2 4 C-0.68 3.67 0.64 3.34 2 3 C1.34 2.01 0.68 1.02 0 0 Z " fill="#2AB4A9" transform="translate(222,247)"/>
<path d="M0 0 C2.86724686 0.57344937 3.8614515 0.8614515 6 3 C6.26991906 5.68839385 6.08737357 8.29141936 6 11 C4 8 4 8 4 6 C3.34 6 2.68 6 2 6 C2.33 4.68 2.66 3.36 3 2 C2.01 2.33 1.02 2.66 0 3 C0 2.01 0 1.02 0 0 Z " fill="#19B7B4" transform="translate(295,225)"/>
<path d="M0 0 C1 3 1 3 0.5 5.125 C-1 7 -1 7 -4.625 7.75 C-5.73875 7.8325 -6.8525 7.915 -8 8 C-5.33333333 5.33333333 -2.66666667 2.66666667 0 0 Z " fill="#E5D2AF" transform="translate(311,186)"/>
<path d="M0 0 C0.33 0 0.66 0 1 0 C2.28571429 8.57142857 2.28571429 8.57142857 1 12 C0.34 12 -0.32 12 -1 12 C-1.33 12.66 -1.66 13.32 -2 14 C-1.03644647 4.58997722 -1.03644647 4.58997722 0 0 Z " fill="#F2E0DE" transform="translate(690,296)"/>
<path d="M0 0 C0.33 0.99 0.66 1.98 1 3 C1.66 3 2.32 3 3 3 C4.25 9.625 4.25 9.625 2 13 C0.54815522 8.46298506 -0.23509196 4.81938524 0 0 Z " fill="#2DB4AD" transform="translate(77,248)"/>
<path d="M0 0 C2.97 0.495 2.97 0.495 6 1 C5.34 2.32 4.68 3.64 4 5 C2.35 4.67 0.7 4.34 -1 4 C-0.67 2.68 -0.34 1.36 0 0 Z " fill="#DECEAF" transform="translate(236,247)"/>
<path d="M0 0 C1.32 0.66 2.64 1.32 4 2 C1.69 3.65 -0.62 5.3 -3 7 C-3.66 6.34 -4.32 5.68 -5 5 C-4.34 5 -3.68 5 -3 5 C-2.5359375 4.0409375 -2.5359375 4.0409375 -2.0625 3.0625 C-1 1 -1 1 0 0 Z " fill="#DB5359" transform="translate(569,492)"/>
<path d="M0 0 C0.33 1.32 0.66 2.64 1 4 C-1.31 5.65 -3.62 7.3 -6 9 C-6.66 8.67 -7.32 8.34 -8 8 C-5.36 5.36 -2.72 2.72 0 0 Z " fill="#40BEB6" transform="translate(122,484)"/>
<path d="M0 0 C1.37562854 1.28965176 2.70766393 2.62689293 4 4 C4 4.66 4 5.32 4 6 C3.01 6.33 2.02 6.66 1 7 C0.34 6.01 -0.32 5.02 -1 4 C-1.99 4.495 -1.99 4.495 -3 5 C-2.67 3.68 -2.34 2.36 -2 1 C-1.34 1.33 -0.68 1.66 0 2 C0 1.34 0 0.68 0 0 Z " fill="#E6F5F5" transform="translate(20,481)"/>
<path d="M0 0 C0.33 1.32 0.66 2.64 1 4 C0.34 4 -0.32 4 -1 4 C-1.12375 4.763125 -1.2475 5.52625 -1.375 6.3125 C-2 9 -2 9 -4 12 C-4.66 12 -5.32 12 -6 12 C-4.43358249 7.69235185 -2.31663844 3.93828536 0 0 Z " fill="#DB656D" transform="translate(557,450)"/>
<path d="M0 0 C0.66 0.33 1.32 0.66 2 1 C2 1.99 2 2.98 2 4 C1.34 4 0.68 4 0 4 C-0.268125 4.639375 -0.53625 5.27875 -0.8125 5.9375 C-2 8 -2 8 -5 9 C-3.50163895 5.88801935 -1.80066242 2.9465385 0 0 Z " fill="#F6EDE9" transform="translate(640,418)"/>
<path d="M0 0 C0.66 0.33 1.32 0.66 2 1 C1.44271087 4.34373475 0.64826111 7.03312999 -1 10 C-2.0625 8.1875 -2.0625 8.1875 -3 6 C-2.67 5.01 -2.34 4.02 -2 3 C-1.67 3.33 -1.34 3.66 -1 4 C-0.67 2.68 -0.34 1.36 0 0 Z " fill="#D5D2B1" transform="translate(276,250)"/>
<path d="M0 0 C-0.66 1.32 -1.32 2.64 -2 4 C-4.64 4 -7.28 4 -10 4 C-9 2 -9 2 -6.6875 0.875 C-4 0 -4 0 0 0 Z " fill="#D8656B" transform="translate(503,64)"/>
<path d="M0 0 C0.66 0 1.32 0 2 0 C2.33 1.98 2.66 3.96 3 6 C1.35 6 -0.3 6 -2 6 C-1.34 4.02 -0.68 2.04 0 0 Z " fill="#2AB9AB" transform="translate(173,272)"/>
<path d="M0 0 C1.95216435 3.90432869 2.50639991 6.72213252 3 11 C2.67 10.34 2.34 9.68 2 9 C1.34 9 0.68 9 0 9 C-0.33 9.66 -0.66 10.32 -1 11 C-0.67 7.37 -0.34 3.74 0 0 Z " fill="#C9EFEB" transform="translate(77,254)"/>
<path d="M0 0 C0.66 0.33 1.32 0.66 2 1 C1.67 1.66 1.34 2.32 1 3 C2.32 3.33 3.64 3.66 5 4 C4.67 5.32 4.34 6.64 4 8 C2.02 5.69 0.04 3.38 -2 1 C-1.34 0.67 -0.68 0.34 0 0 Z " fill="#DAF2F3" transform="translate(308,92)"/>
<path d="M0 0 C0.66 0.33 1.32 0.66 2 1 C1.34 2.32 0.68 3.64 0 5 C-0.99 5 -1.98 5 -3 5 C-3 5.66 -3 6.32 -3 7 C-4.32 6.34 -5.64 5.68 -7 5 C-4.69 3.35 -2.38 1.7 0 0 Z " fill="#D75B5F" transform="translate(478,75)"/>
<path d="M0 0 C-1.5625 1.5625 -1.5625 1.5625 -4 3 C-7.75 2.6875 -7.75 2.6875 -11 2 C-6.98764085 -0.6749061 -4.6342454 -1.48957888 0 0 Z " fill="#D9606A" transform="translate(521,60)"/>
<path d="M0 0 C-1.0975223 2.99324263 -1.67682892 3.84610901 -4.625 5.25 C-5.40875 5.4975 -6.1925 5.745 -7 6 C-7 5.01 -7 4.02 -7 3 C-2.77777778 0 -2.77777778 0 0 0 Z " fill="#F5EFED" transform="translate(505,511)"/>
<path d="M0 0 C1 3 1 3 0.22265625 4.82421875 C-0.8515625 6.54947917 -1.92578125 8.27473958 -3 10 C-3.66 10 -4.32 10 -5 10 C-3.66511872 6.40608886 -2.03977277 3.24509304 0 0 Z " fill="#F4DCDC" transform="translate(656,391)"/>
<path d="M0 0 C0 0.99 0 1.98 0 3 C0.99 3.33 1.98 3.66 3 4 C-4.75 3.25 -4.75 3.25 -7 1 C-4.50935112 0.31292445 -2.62113708 0 0 0 Z " fill="#4EBBAA" transform="translate(256,332)"/>
<path d="M0 0 C1.5 1.375 1.5 1.375 3 3 C3 3.66 3 4.32 3 5 C1.35 5.33 -0.3 5.66 -2 6 C-2.33 5.34 -2.66 4.68 -3 4 C-2.34 4 -1.68 4 -1 4 C-0.67 2.68 -0.34 1.36 0 0 Z " fill="#F9C4A3" transform="translate(525,248)"/>
<path d="M0 0 C3.3 0.33 6.6 0.66 10 1 C10 1.33 10 1.66 10 2 C6.37 2.66 2.74 3.32 -1 4 C-0.67 2.68 -0.34 1.36 0 0 Z " fill="#3DB6AD" transform="translate(292,245)"/>
<path d="M0 0 C0.66 1.32 1.32 2.64 2 4 C0.35 5.32 -1.3 6.64 -3 8 C-3.66 7.67 -4.32 7.34 -5 7 C-3.35 4.69 -1.7 2.38 0 0 Z " fill="#F4E4E2" transform="translate(634,427)"/>
<path d="M0 0 C1.98 0.495 1.98 0.495 4 1 C3.01 1 2.02 1 1 1 C1 1.66 1 2.32 1 3 C1.99 3.33 2.98 3.66 4 4 C3.01 4.495 3.01 4.495 2 5 C1.67 5.66 1.34 6.32 1 7 C0.34 6.34 -0.32 5.68 -1 5 C-0.625 2.375 -0.625 2.375 0 0 Z " fill="#53B8AA" transform="translate(198,244)"/>
<path d="M0 0 C0.33 0 0.66 0 1 0 C1.33 3.96 1.66 7.92 2 12 C0.68 11.34 -0.64 10.68 -2 10 C-1.34 9.67 -0.68 9.34 0 9 C0 6.03 0 3.06 0 0 Z " fill="#F3AB90" transform="translate(459,235)"/>
<path d="M0 0 C0.144375 0.598125 0.28875 1.19625 0.4375 1.8125 C0.8872439 3.56150404 1.42892341 5.28677023 2 7 C-0.475 6.01 -0.475 6.01 -3 5 C-1.125 1.125 -1.125 1.125 0 0 Z " fill="#D75E62" transform="translate(447,100)"/>
<path d="M0 0 C0.66 0 1.32 0 2 0 C3.625 2.5 3.625 2.5 5 5 C3.35 5.33 1.7 5.66 0 6 C0 4.02 0 2.04 0 0 Z " fill="#DD6E71" transform="translate(496,396)"/>
<path d="M0 0 C2.00720923 0.28674418 4.0085944 0.61866701 6 1 C4.125 2.0625 4.125 2.0625 2 3 C1.34 2.67 0.68 2.34 0 2 C0.33 3.32 0.66 4.64 1 6 C0.34 6 -0.32 6 -1 6 C-1.042721 4.33388095 -1.04063832 2.66617115 -1 1 C-0.67 0.67 -0.34 0.34 0 0 Z " fill="#4FB5A9" transform="translate(247,326)"/>
<path d="M0 0 C2.76223278 2.76223278 2.57856291 5.20706617 3 9 C2.01 9 1.02 9 0 9 C0 6.03 0 3.06 0 0 Z " fill="#48BAB0" transform="translate(179,283)"/>
<path d="M0 0 C1.2065625 0.0309375 1.2065625 0.0309375 2.4375 0.0625 C2.1075 0.7225 1.7775 1.3825 1.4375 2.0625 C0.4475 2.3925 -0.5425 2.7225 -1.5625 3.0625 C-1.8925 4.7125 -2.2225 6.3625 -2.5625 8.0625 C-2.8925 8.0625 -3.2225 8.0625 -3.5625 8.0625 C-3.60491723 5.72955225 -3.60342937 3.39547433 -3.5625 1.0625 C-2.5625 0.0625 -2.5625 0.0625 0 0 Z " fill="#DE6A63" transform="translate(452.5625,235.9375)"/>
<path d="M0 0 C0.33 0 0.66 0 1 0 C1.66 2.97 2.32 5.94 3 9 C2.01 9.33 1.02 9.66 0 10 C0 6.7 0 3.4 0 0 Z " fill="#B3C9B1" transform="translate(302,231)"/>
<path d="M0 0 C0.66 0 1.32 0 2 0 C2.66 1.65 3.32 3.3 4 5 C3.34 5 2.68 5 2 5 C2 5.99 2 6.98 2 8 C1.34 8 0.68 8 0 8 C0 5.36 0 2.72 0 0 Z " fill="#18B8B1" transform="translate(216,237)"/>
<path d="M0 0 C1.65 1.65 3.3 3.3 5 5 C4.01 5.33 3.02 5.66 2 6 C1.01 5.01 0.02 4.02 -1 3 C-0.67 2.01 -0.34 1.02 0 0 Z " fill="#D95158" transform="translate(647,101)"/>
<path d="M0 0 C0.66 0.33 1.32 0.66 2 1 C0.02 2.98 -1.96 4.96 -4 7 C-4.99 6.67 -5.98 6.34 -7 6 C-4.69 4.02 -2.38 2.04 0 0 Z " fill="#D8676C" transform="translate(469,81)"/>
</svg>
